<?xml version="1.0" encoding="UTF-8" standalone="no"?>
<!-- Created with Inkscape (http://www.inkscape.org/) -->

<svg
   width="234.62914mm"
   height="75.005913mm"
   viewBox="0 0 234.62914 75.005911"
   version="1.1"
   id="svg1670"
   inkscape:version="1.1.2 (0a00cf5339, 2022-02-04)"
   sodipodi:docname="drawing-1.svg"
   xmlns:inkscape="http://www.inkscape.org/namespaces/inkscape"
   xmlns:sodipodi="http://sodipodi.sourceforge.net/DTD/sodipodi-0.dtd"
   xmlns="http://www.w3.org/2000/svg"
   xmlns:svg="http://www.w3.org/2000/svg">
  <sodipodi:namedview
     id="namedview1672"
     pagecolor="#505050"
     bordercolor="#eeeeee"
     borderopacity="1"
     inkscape:pageshadow="0"
     inkscape:pageopacity="0"
     inkscape:pagecheckerboard="0"
     inkscape:document-units="mm"
     showgrid="false"
     fit-margin-top="0"
     fit-margin-left="0"
     fit-margin-right="0"
     fit-margin-bottom="0"
     inkscape:zoom="0.63785073"
     inkscape:cx="377.83135"
     inkscape:cy="140.31496"
     inkscape:window-width="2560"
     inkscape:window-height="1004"
     inkscape:window-x="2560"
     inkscape:window-y="0"
     inkscape:window-maximized="1"
     inkscape:current-layer="layer1" />
  <defs
     id="defs1667" />
  <g
     inkscape:label="Layer 1"
     inkscape:groupmode="layer"
     id="layer1"
     transform="translate(-5.0519181,-110.99704)">
    <path
       style="fill:#000000;stroke:none;stroke-width:0.0474093"
       d="m 40.708076,111.04602 c -2.145175,0.28166 -4.270392,0.38297 -6.400255,0.85337 -5.465672,1.20727 -10.633715,3.6883 -15.028743,7.1487 -3.835508,3.01983 -7.096227,6.81935 -9.4752225,11.08377 -6.3675432,11.41403 -6.3556885,25.66882 0.1558336,37.02666 1.8703929,3.26271 4.2446039,6.25044 6.9963299,8.81386 2.723713,2.53735 5.846754,4.67598 9.197406,6.29738 3.977403,1.92482 8.308147,3.13423 12.705689,3.55996 4.714474,0.45608 9.522632,0.007 14.080562,-1.29237 10.959133,-3.12428 20.138516,-11.45077 24.368376,-22.02494 1.136401,-2.84077 1.904905,-5.79152 2.342966,-8.81813 0.176836,-1.22221 0.494954,-2.80995 -0.968099,-3.36293 -0.577917,-0.21846 -1.333621,-0.098 -1.943781,-0.098 H 72.804167 59.292518 54.883457 c -0.651877,0 -1.485807,-0.1399 -2.086008,0.16025 -0.786521,0.39302 -0.913107,1.18381 -1.213678,1.92576 -0.29963,0.73911 -0.711141,1.44077 -1.176701,2.08601 -2.025324,2.80474 -5.497248,4.39721 -8.940445,4.06914 -4.868602,-0.46366 -8.765029,-4.51194 -9.098366,-9.37898 -0.09136,-1.33448 0.144315,-2.67725 0.581003,-3.93497 1.353865,-3.89904 5.296471,-6.68433 9.41814,-6.68433 2.165422,0 4.296233,0.76258 6.020982,2.05599 1.019774,0.76496 1.891159,1.73509 2.550618,2.82678 0.582659,0.96559 0.863322,2.09706 2.048083,2.49582 0.540467,0.18191 1.143984,0.1117 1.706735,0.1117 h 2.986786 10.098177 8.770719 c 1.100372,0 2.540666,0.22505 3.058849,-1.04301 0.425736,-1.0412 -0.09766,-2.64155 -0.309109,-3.69792 -0.662781,-3.31382 -1.747982,-6.50617 -3.25939,-9.52927 -5.122573,-10.24449 -14.910221,-17.71472 -26.134369,-19.95926 -2.280386,-0.45599 -4.598703,-0.71114 -6.921758,-0.71114 -0.744564,0 -1.537296,-0.0768 -2.275649,0.0201 m 35.841426,31.88635 c -0.881809,0.26061 -2.113029,0.0474 -3.034194,0.0474 h -6.542484 c -0.60921,-2.95246 -1.906326,-5.84191 -3.57134,-8.34404 -4.643741,-6.9784 -12.876362,-11.5369 -21.318536,-11.3301 -3.097251,0.0759 -6.168565,0.66695 -9.055176,1.8105 -3.503644,1.38796 -6.468951,3.5832 -9.102396,6.24836 -2.096581,2.12181 -3.714421,4.80034 -4.863244,7.53808 -1.222259,2.91273 -1.916476,6.13211 -1.916476,9.29222 0,4.3517 0.969567,8.62423 3.048846,12.46865 1.272606,2.35292 2.937577,4.45742 4.868509,6.30354 8.675474,8.29567 22.512776,8.92669 32.143499,1.97317 2.452485,-1.77073 4.594436,-4.04685 6.258029,-6.56998 0.75665,-1.14778 1.640835,-2.55536 0.237046,-3.62539 -0.873751,-0.6661 -2.567687,-0.30958 -3.603108,-0.30958 -3.096774,0 -6.199236,0.0474 -9.292219,0.0474 0.290142,-0.50633 0.880389,-0.89366 1.271992,-1.32746 0.637181,-0.70545 1.180489,-1.49624 1.647472,-2.32306 0.207178,-0.36694 0.387805,-0.75143 0.554687,-1.13782 0.06448,-0.14886 0.118523,-0.37453 0.281138,-0.44565 0.45845,-0.20006 1.338363,-0.0285 1.839004,-0.0285 h 4.503885 15.739884 c -0.01992,0.95815 -0.295359,1.95943 -0.501587,2.89197 -0.548055,2.48283 -1.411377,4.85187 -2.470502,7.15881 -6.089247,13.26132 -20.849182,21.24457 -35.2398,19.47194 -4.22488,-0.52056 -8.384855,-1.76505 -12.136779,-3.79417 -9.674721,-5.23248 -16.5167345,-14.88691 -17.9547533,-25.82329 -1.668143,-12.68625 3.8985623,-25.64544 14.4938723,-32.94822 3.383034,-2.33178 7.121779,-4.03515 11.093778,-5.07953 4.511847,-1.18628 9.244668,-1.33372 13.843517,-0.67108 3.8008,0.54772 7.574107,1.80402 10.951544,3.63061 7.145055,3.86428 12.699052,10.06926 15.786818,17.57419 0.979953,2.38156 1.427969,4.82106 2.039074,7.30104 z"
       id="path1820" />
    <text
       xml:space="preserve"
       style="font-style:normal;font-weight:normal;font-size:18.2139px;line-height:1.25;font-family:sans-serif;fill:#000000;fill-opacity:1;stroke:none;stroke-width:0.455347"
       x="89.060631"
       y="143.90651"
       id="text4419"><tspan
         sodipodi:role="line"
         id="tspan4417"
         style="font-style:normal;font-variant:normal;font-weight:bold;font-stretch:normal;font-family:'Basic Sans SF', sans-serif;-inkscape-font-specification:'Basic Sans SF, sans-serif Bold';stroke-width:0.455347"
         x="89.060631"
         y="143.90651">Gage Crib</tspan><tspan
         sodipodi:role="line"
         style="font-style:normal;font-variant:normal;font-weight:bold;font-stretch:normal;font-family:'Basic Sans SF', sans-serif;-inkscape-font-specification:'Basic Sans SF, sans-serif Bold';stroke-width:0.455347"
         x="89.060631"
         y="166.67389"
         id="tspan4421">Worldwide Inc.</tspan></text>
  </g>
</svg>
