<?xml version="1.0" encoding="UTF-8" standalone="no"?>
<!-- Created with Inkscape (http://www.inkscape.org/) -->

<svg
   width="149.3259mm"
   height="22.540121mm"
   viewBox="0 0 149.3259 22.540121"
   version="1.1"
   id="svg5"
   inkscape:version="1.1.2 (0a00cf5339, 2022-02-04)"
   sodipodi:docname="drawing.svg"
   xmlns:inkscape="http://www.inkscape.org/namespaces/inkscape"
   xmlns:sodipodi="http://sodipodi.sourceforge.net/DTD/sodipodi-0.dtd"
   xmlns="http://www.w3.org/2000/svg"
   xmlns:svg="http://www.w3.org/2000/svg">
  <sodipodi:namedview
     id="namedview7"
     pagecolor="#505050"
     bordercolor="#eeeeee"
     borderopacity="1"
     inkscape:pageshadow="0"
     inkscape:pageopacity="0"
     inkscape:pagecheckerboard="true"
     inkscape:document-units="mm"
     showgrid="false"
     inkscape:snap-nodes="false"
     inkscape:zoom="1.5077162"
     inkscape:cx="395.96311"
     inkscape:cy="-9.6171945"
     inkscape:window-width="2560"
     inkscape:window-height="1004"
     inkscape:window-x="2560"
     inkscape:window-y="0"
     inkscape:window-maximized="1"
     inkscape:current-layer="g880"
     fit-margin-top="0"
     fit-margin-left="0"
     fit-margin-right="0"
     fit-margin-bottom="0" />
  <defs
     id="defs2" />
  <g
     inkscape:label="Layer 1"
     inkscape:groupmode="layer"
     id="layer1"
     transform="translate(-26.442379,-137.22994)">
    <g
       id="g880"
       transform="matrix(0.26458333,0,0,0.26458333,-21.27146,80.836324)">
      <path
         class="st0"
         d="m 259.16675,298.33222 h -78.83098 v -85.19101 h 78.83098 z m -57.4077,-63.76773 h 45.02236 v -9.03795 H 192.7211 v 60.42035 h 9.03795 z m 45.02236,42.17708 h -32.30229 v -38.49496 h -9.03794 v 47.53291 h 41.5076 v -9.03795 z m -0.16737,-12.72007 h -19.74958 v -16.73694 h 19.74958 v -9.03795 h -28.78753 v 34.81283 h 28.78753 z"
         id="path826"
         style="fill:#000000;stroke-width:1.67369" />
      <g
         id="g856"
         style="fill:#000000"
         transform="translate(0,-1.4024791e-5)">
	
	
	<g
   id="g1304"
   style="fill:#000000">
  <path
     class="st1"
     d="m 285.91714,246.33673 h -6 c -0.4,0 -0.7,-0.3 -0.7,-0.7 v -2.1 c 0,-0.4 0.3,-0.7 0.7,-0.7 h 15.8 c 0.4,0 0.7,0.3 0.7,0.7 v 2.1 c 0,0.4 -0.3,0.7 -0.7,0.7 h -6 v 21.6 c 0,0.4 -0.3,0.7 -0.7,0.7 h -2.4 c -0.4,0 -0.7,-0.3 -0.7,-0.7 z"
     id="path828"
     style="fill:#000000" />
  <path
     class="st1"
     d="m 307.71714,243.53673 c 0,-0.4 0.3,-0.7 0.7,-0.7 h 2.4 c 0.4,0 0.7,0.3 0.7,0.7 v 10.3 h 13.5 v -10.3 c 0,-0.4 0.3,-0.7 0.7,-0.7 h 2.4 c 0.4,0 0.7,0.3 0.7,0.7 v 24.4 c 0,0.4 -0.3,0.7 -0.7,0.7 h -2.4 c -0.4,0 -0.7,-0.3 -0.7,-0.7 v -10.7 h -13.4 v 10.7 c 0,0.4 -0.3,0.7 -0.7,0.7 h -2.4 c -0.4,0 -0.7,-0.3 -0.7,-0.7 z"
     id="path830"
     style="fill:#000000" />
  <path
     class="st1"
     d="m 343.41714,243.53673 c 0,-0.4 0.3,-0.7 0.7,-0.7 h 14.7 c 0.4,0 0.7,0.3 0.7,0.7 v 2.1 c 0,0.4 -0.3,0.7 -0.7,0.7 h -11.7 v 7.5 h 9.8 c 0.4,0 0.7,0.3 0.7,0.7 v 2.1 c 0,0.4 -0.3,0.7 -0.7,0.7 h -9.8 v 7.9 h 11.7 c 0.4,0 0.7,0.3 0.7,0.7 v 2 c 0,0.4 -0.3,0.7 -0.7,0.7 h -14.7 c -0.4,0 -0.7,-0.3 -0.7,-0.7 0,0 0,-24.4 0,-24.4 z"
     id="path832"
     style="fill:#000000" />
</g>

	
	
	
	
	<g
   id="g1311"
   style="fill:#000000">
  <path
     class="st1"
     d="m 387.81714,243.58673 c 0,-0.4 0.3,-0.7 0.7,-0.7 h 2.4 c 0.4,0 0.7,0.3 0.7,0.7 v 21.6 h 10 c 0.4,0 0.7,0.3 0.7,0.7 v 2 c 0,0.4 -0.3,0.7 -0.7,0.7 h -13.1 c -0.4,0 -0.7,-0.3 -0.7,-0.7 0,0 0,-24.3 0,-24.3 z"
     id="path834"
     style="fill:#000000" />
  <path
     class="st1"
     d="m 424.61714,242.48673 c 7.4,0 13.2,5.9 13.2,13.3 0,7.4 -5.9,13.2 -13.2,13.2 -7.3,0 -13.2,-5.9 -13.2,-13.2 0,-7.3 5.9,-13.3 13.2,-13.3 z m 0,22.9 c 5.3,0 9.6,-4.3 9.6,-9.5 0,-5.2 -4.3,-9.6 -9.6,-9.6 -5.2,0 -9.5,4.4 -9.5,9.6 0,5.2 4.3,9.5 9.5,9.5 z"
     id="path836"
     style="fill:#000000" />
  <path
     class="st1"
     d="m 461.91714,242.43673 c 3.7,0 6.4,1.3 8.9,3.4 0.3,0.3 0.3,0.7 0,1 l -1.6,1.7 c -0.3,0.3 -0.6,0.3 -0.9,0 -1.7,-1.5 -4.1,-2.5 -6.4,-2.5 -5.3,0 -9.2,4.4 -9.2,9.6 0,5.2 4,9.5 9.3,9.5 2.7,0 4.6,-1.1 6.3,-2.4 0.3,-0.3 0.7,-0.2 0.9,0 l 1.7,1.7 c 0.3,0.3 0.2,0.7 0,1 -2.5,2.4 -5.7,3.6 -8.9,3.6 -7.4,0 -13.3,-5.9 -13.3,-13.2 -0.1,-7.4 5.9,-13.4 13.2,-13.4 z"
     id="path838"
     style="fill:#000000" />
  <path
     class="st1"
     d="m 480.01714,267.83673 11.3,-24.8 c 0.1,-0.2 0.4,-0.4 0.6,-0.4 h 0.4 c 0.2,0 0.5,0.2 0.6,0.4 l 11.2,24.8 c 0.2,0.5 -0.1,1 -0.6,1 h -2.3 c -0.4,0 -0.7,-0.2 -0.8,-0.6 l -2.3,-5 h -12 c -0.7,1.7 -1.5,3.3 -2.2,5 -0.1,0.3 -0.4,0.6 -0.8,0.6 h -2.3 c -0.7,0 -1,-0.5 -0.8,-1 z m 16.7,-7.8 -4.5,-10.1 h -0.2 l -4.5,10.1 z"
     id="path840"
     style="fill:#000000" />
  <path
     class="st1"
     d="m 515.21714,243.58673 c 0,-0.4 0.3,-0.7 0.7,-0.7 h 2.4 c 0.4,0 0.7,0.3 0.7,0.7 v 21.6 h 10 c 0.4,0 0.7,0.3 0.7,0.7 v 2 c 0,0.4 -0.3,0.7 -0.7,0.7 h -13.1 c -0.4,0 -0.7,-0.3 -0.7,-0.7 z"
     id="path842"
     style="fill:#000000" />
</g>

	
	
	
	
	
	<g
   id="g1319"
   style="fill:#000000">
  <path
     class="st1"
     d="m 567.81714,242.43673 c 3.7,0 6.4,1.3 8.9,3.4 0.3,0.3 0.3,0.7 0,1 l -1.6,1.7 c -0.3,0.3 -0.6,0.3 -0.9,0 -1.7,-1.5 -4.1,-2.5 -6.4,-2.5 -5.3,0 -9.2,4.4 -9.2,9.6 0,5.2 4,9.5 9.3,9.5 2.7,0 4.6,-1.1 6.3,-2.4 0.3,-0.3 0.7,-0.2 0.9,0 l 1.7,1.7 c 0.3,0.3 0.2,0.7 0,1 -2.5,2.4 -5.7,3.6 -8.9,3.6 -7.4,0 -13.3,-5.9 -13.3,-13.2 -0.1,-7.4 5.8,-13.4 13.2,-13.4 z"
     id="path844"
     style="fill:#000000" />
  <path
     class="st1"
     d="m 589.41714,243.53673 c 0,-0.4 0.3,-0.7 0.7,-0.7 h 2.4 c 0.4,0 0.7,0.3 0.7,0.7 v 10.3 h 13.5 v -10.3 c 0,-0.4 0.3,-0.7 0.7,-0.7 h 2.4 c 0.4,0 0.7,0.3 0.7,0.7 v 24.4 c 0,0.4 -0.3,0.7 -0.7,0.7 h -2.4 c -0.4,0 -0.7,-0.3 -0.7,-0.7 v -10.7 h -13.5 v 10.7 c 0,0.4 -0.3,0.7 -0.7,0.7 h -2.4 c -0.4,0 -0.7,-0.3 -0.7,-0.7 z"
     id="path846"
     style="fill:#000000" />
  <path
     class="st1"
     d="m 624.61714,243.33673 c 0,-0.4 0.3,-0.7 0.7,-0.7 h 2.5 c 0.4,0 0.7,0.3 0.7,0.7 v 15.2 c 0,3.7 2.4,6.6 6.1,6.6 3.8,0 6.2,-2.8 6.2,-6.5 v -15.3 c 0,-0.4 0.3,-0.7 0.7,-0.7 h 2.5 c 0.4,0 0.7,0.3 0.7,0.7 v 15.5 c 0,5.6 -4.2,10 -10,10 -5.8,0 -10,-4.4 -10,-10 v -15.5 z"
     id="path848"
     style="fill:#000000" />
  <path
     class="st1"
     d="m 658.81714,243.53673 c 0,-0.4 0.3,-0.7 0.7,-0.7 h 10 c 4.4,0 8,3.5 8,7.9 0,3.4 -2.2,6.2 -5.4,7.5 l 5,9.3 c 0.3,0.5 0,1.1 -0.6,1.1 h -2.9 c -0.3,0 -0.5,-0.2 -0.6,-0.3 l -4.9,-9.8 h -5.6 v 9.4 c 0,0.4 -0.3,0.7 -0.7,0.7 h -2.4 c -0.4,0 -0.7,-0.3 -0.7,-0.7 v -24.4 z m 10.5,11.8 c 2.4,0 4.5,-2 4.5,-4.6 0,-2.4 -2.1,-4.4 -4.5,-4.4 h -6.6 v 8.9 z"
     id="path850"
     style="fill:#000000" />
  <path
     class="st1"
     d="m 702.11714,242.43673 c 3.7,0 6.4,1.3 8.9,3.4 0.3,0.3 0.3,0.7 0,1 l -1.6,1.7 c -0.3,0.3 -0.6,0.3 -0.9,0 -1.7,-1.5 -4.1,-2.5 -6.4,-2.5 -5.3,0 -9.2,4.4 -9.2,9.6 0,5.2 4,9.5 9.3,9.5 2.7,0 4.6,-1.1 6.3,-2.4 0.3,-0.3 0.7,-0.2 0.9,0 l 1.7,1.7 c 0.3,0.3 0.2,0.7 0,1 -2.5,2.4 -5.7,3.6 -8.9,3.6 -7.4,0 -13.3,-5.9 -13.3,-13.2 -0.1,-7.4 5.8,-13.4 13.2,-13.4 z"
     id="path852"
     style="fill:#000000" />
  <path
     class="st1"
     d="m 723.61714,243.53673 c 0,-0.4 0.3,-0.7 0.7,-0.7 h 2.4 c 0.4,0 0.7,0.3 0.7,0.7 v 10.3 h 13.5 v -10.3 c 0,-0.4 0.3,-0.7 0.7,-0.7 h 2.4 c 0.4,0 0.7,0.3 0.7,0.7 v 24.4 c 0,0.4 -0.3,0.7 -0.7,0.7 h -2.4 c -0.4,0 -0.7,-0.3 -0.7,-0.7 v -10.7 h -13.5 v 10.7 c 0,0.4 -0.3,0.7 -0.7,0.7 h -2.4 c -0.4,0 -0.7,-0.3 -0.7,-0.7 z"
     id="path854"
     style="fill:#000000" />
</g>

</g>
    </g>
  </g>
  <style
     type="text/css"
     id="style824">
	.st0{fill:#F04E30;}
	.st1{fill:#FFFFFF;}
</style>
</svg>
